<svg width="100" height="100" viewBox="0 0 100 100" fill="none" xmlns="http://www.w3.org/2000/svg">
<path fill-rule="evenodd" clip-rule="evenodd" d="M38.4665 0.0857429C37.5276 0.201889 35.3063 0.78839 33.688 1.34737C28.6152 3.09977 24.437 6.012 19.0499 11.5509C14.8346 15.8847 12.8413 18.632 8.76046 25.7314C7.68077 27.6097 5.45359 32.4503 4.81213 34.3129C4.60184 34.9232 4.22184 35.9885 3.96758 36.6802C2.84936 39.7216 1.70438 43.9273 0.906009 47.9249C0.816598 48.3725 0.647483 49.7042 0.529985 50.8843C0.412486 52.0644 0.243224 53.6624 0.153667 54.4353C-0.0197131 55.9341 -0.0548594 60.9855 0.0919032 63.3124C0.174696 64.6233 0.41381 66.5555 0.734394 68.5042C1.05527 70.4549 2.34922 74.8989 3.20745 76.9984C3.55127 77.8393 3.747 78.2815 4.66434 80.2905C6.17976 83.6093 9.40207 88.2624 12.0204 90.9127C16.7945 95.7448 22.7811 98.9185 28.7608 99.7867C30.5224 100.043 35.453 100.076 37.2299 99.8444C39.9355 99.4917 42.7072 98.6062 45.4517 97.2178C46.9602 96.4546 49.0789 95.169 49.5065 94.7572C49.5933 94.6736 49.9236 94.4055 50.2406 94.1614C51.3572 93.3012 52.9475 91.6706 53.2556 91.07C53.4269 90.7359 53.6888 90.3293 53.8375 90.1666C54.0997 89.8798 56.0398 86.7325 56.0398 86.594C56.0398 86.5563 56.1654 86.246 56.3188 85.9047C56.8477 84.7275 57.4895 82.7291 57.8304 81.1976C58.1249 79.8737 58.1721 79.2583 58.1721 76.7395C58.1721 74.8893 58.2261 73.8179 58.3192 73.8187C58.4001 73.8194 58.629 74.0359 58.828 74.2995C59.027 74.5633 59.7177 75.2997 60.3631 75.9361C61.2997 76.8595 61.8204 77.2328 62.9425 77.7856C64.256 78.4324 64.4373 78.4814 65.7 78.5289C66.7839 78.5699 67.2082 78.5209 67.8446 78.2814C70.2867 77.362 72.2824 75.5882 73.8654 72.9296C74.5995 71.6967 75.4923 69.7323 75.7414 68.8018C75.8307 68.4681 75.9557 68.195 76.0191 68.195C76.0825 68.195 76.5855 69.0913 77.1368 70.1866C77.6882 71.2821 78.246 72.2975 78.3762 72.4431C78.5064 72.5887 78.8379 73.0074 79.1128 73.3735C80.2318 74.8641 82.0119 75.8849 83.496 75.8873C85.2036 75.8901 87.3539 74.4768 88.6261 72.5159C88.9271 72.0518 89.7256 70.93 90.4005 70.0231C91.848 68.078 91.8358 68.1519 91.2511 64.866C91.0483 63.7267 90.8472 62.5615 90.8043 62.2767C90.6317 61.133 90.6109 61.0929 90.1909 61.0953C89.6505 61.0984 89.5873 61.1573 88.8424 62.3507C87.033 65.2499 86.5947 65.7195 84.9629 66.5062C83.7222 67.1046 82.9774 67.1504 81.6063 66.7134C79.9184 66.1752 78.8146 65.1017 77.4621 62.6824C76.5504 61.0516 76.4669 60.9451 76.0986 60.9451C75.705 60.9451 75.5517 61.1428 75.3239 61.9444C74.9673 63.1989 73.6675 65.2299 72.3631 66.571C69.9386 69.0633 67.6495 69.9688 64.8613 69.5381C62.9221 69.2387 61.5535 68.5527 59.8225 67.0124C58.6396 65.9598 57.1114 63.5477 56.5633 61.8684C56.1133 60.4895 55.4751 60.508 54.5564 61.9265C53.8659 62.993 53.8762 62.7965 54.3476 65.9017C55.4989 73.4865 55.6827 76.9895 55.0855 79.9576C54.5576 82.5811 53.2779 85.4244 51.7913 87.2771C51.4993 87.641 51.1287 88.107 50.9678 88.3128C50.0921 89.4324 45.8601 93.4594 45.2127 93.789C44.9802 93.9075 44.5253 94.1804 44.2017 94.3952C42.91 95.2535 41.1407 96.0264 39.2018 96.5796C37.558 97.0486 36.6998 97.1954 34.2754 97.4219C29.9955 97.8219 28.4978 97.6772 25.6073 96.5848C22.912 95.5663 21.3988 94.5689 19.2156 92.3723C17.0455 90.1889 15.5882 88.0465 13.851 84.4855C11.6998 80.0762 10.1173 74.3396 9.43692 68.4842C8.55325 60.8812 8.71149 54.6271 10.0057 46.0015C10.8022 40.6926 12.6275 34.0065 14.8121 28.3946C15.8508 25.7268 18.0874 21.0515 19.2652 19.0867C19.6753 18.4024 20.0109 17.8201 20.0109 17.7929C20.0109 17.7201 22.1909 14.5118 22.7098 13.8209C24.9092 10.8924 26.3926 9.25744 29.0066 6.88066C30.9453 5.11805 32.2773 4.24584 35.147 2.86008C36.4199 2.24547 39.0661 1.61399 40.3637 1.61532C41.6313 1.6165 42.8998 1.85087 43.522 2.19886C43.815 2.36265 44.4863 2.72426 45.0139 3.00227C46.5667 3.82047 48.4498 5.97916 49.1875 7.78675C49.8315 9.36471 50.0115 10.5633 50.0005 13.2017C49.9889 15.9504 49.6837 20.0195 49.4156 20.9968C49.3153 21.363 49.1458 21.7648 49.0392 21.89C48.9325 22.015 48.7359 22.3812 48.6023 22.7038C48.1212 23.8652 46.868 25.8221 45.9305 26.876C45.4047 27.4671 44.9175 27.9507 44.8477 27.9507C44.7779 27.9507 44.2553 27.5888 43.6863 27.1464C41.9609 25.8052 40.1805 25.3128 38.7827 25.7903C37.0962 26.3663 35.9364 27.3147 35.2811 28.6535C34.9973 29.2335 34.9286 29.6409 34.8886 30.9839C34.8241 33.1547 35.1255 34.0247 36.3574 35.2212C37.5117 36.3427 38.3252 36.7224 39.7344 36.7978C42.4716 36.9443 45.9939 35.3357 48.5821 32.7571C49.7216 31.622 49.7322 31.6205 51.3387 32.3677C52.6669 32.9856 53.5369 33.298 55.7692 33.9593C56.1461 34.0708 56.9402 34.2348 57.5339 34.3234C59.0243 34.5459 63.8714 34.6345 64.9 34.458C65.3651 34.3781 66.1592 34.2422 66.6646 34.1556C67.1702 34.0691 67.9808 33.8751 68.4661 33.7246C68.9514 33.574 69.8117 33.3074 70.3778 33.1322C71.8638 32.6722 74.6417 31.2309 75.3938 30.5296C76.1583 29.8166 76.2104 29.429 75.6522 28.6013C75.3888 28.211 75.2592 27.8152 75.2478 27.366C75.232 26.759 75.1789 26.67 74.5941 26.2747C74.0769 25.9248 73.9732 25.7815 74.041 25.5098C74.1456 25.0909 73.6847 24.4684 73.1747 24.3397C72.7562 24.2341 71.5381 24.7889 70.9172 25.3682C70.7103 25.5612 69.5115 26.2463 68.2534 26.8903C66.0536 28.0166 63.626 28.9267 61.9221 29.2639C61.4772 29.352 60.5094 29.5586 59.7715 29.7231C59.0336 29.8875 58.1679 30.0221 57.8476 30.0221C57.5273 30.0221 56.9068 30.0942 56.4688 30.1821C55.642 30.3482 51.298 30.1833 51.094 29.978C50.9449 29.8279 51.2094 29.3253 51.9772 28.3004C52.3513 27.8009 52.6575 27.3471 52.6575 27.2917C52.6575 27.2364 52.8179 26.9793 53.0141 26.7202C53.6589 25.8684 54.7042 23.4725 55.3173 21.4406C56.2939 18.2041 56.4154 14.8147 55.6939 10.9293C55.5617 10.2172 55.2364 9.30745 54.7955 8.41616C52.6688 4.11668 48.913 1.16213 44.3754 0.219052C43.3414 0.00421883 39.7763 -0.0762698 38.4665 0.0857429ZM43.687 29.4855C43.687 29.7404 42.6576 30.6387 42.4465 30.5678C42.1423 30.466 42.2009 30.0244 42.5673 29.6556C42.9654 29.2551 43.687 29.1453 43.687 29.4855ZM63.281 43.0416C62.7175 43.3872 62.3084 44.0154 61.9793 45.0398C61.5647 46.3304 61.4427 46.4452 60.4849 46.4462C59.3483 46.4473 58.5852 46.6819 58.3017 47.1174C57.8761 47.7707 58.0998 47.9249 59.473 47.9249C60.31 47.9249 60.7611 47.9872 60.8687 48.1178C60.9844 48.258 60.9515 48.6314 60.7484 49.4864C59.4228 55.0635 59.3089 56.4354 60.0133 58.3298C60.5843 59.8655 61.736 60.6529 63.064 60.4157C64.7941 60.1065 67.3632 57.9049 67.3632 56.7313C67.3632 56.1916 66.7957 56.2376 66.251 56.8214C66.0135 57.0762 65.4748 57.509 65.0541 57.7831C63.7497 58.6336 62.7359 58.4155 62.0871 57.145C61.8227 56.627 61.8928 54.0722 62.2146 52.5116C62.744 49.943 63.2195 48.1804 63.4176 48.0542C63.5251 47.9856 65.036 47.9283 66.7749 47.927C69.4883 47.9248 70.0093 47.8878 70.4493 47.6657C70.9936 47.3911 71.4109 46.7598 71.1931 46.5406C71.1222 46.4693 69.4868 46.4018 67.5592 46.391C63.4413 46.368 63.6576 46.4999 64.4889 44.517C65.1803 42.8676 65.1732 42.7463 64.3853 42.747C64.0213 42.7473 63.5601 42.8703 63.281 43.0416ZM85.5982 47.5368C84.125 47.965 82.9897 48.8054 82.0138 50.1904C80.5868 52.2157 80.0836 53.8623 80.0836 56.5064C80.0836 57.994 80.1271 58.2968 80.4294 58.9147C81.2143 60.5183 82.66 60.8927 84.1517 59.8786C85.5607 58.9211 87.223 56.9963 88.2783 55.1008C89.0001 53.8043 89.1959 53.9046 89.224 55.5855C89.2558 57.474 89.4721 58.2834 90.1195 58.9347C90.6009 59.4191 90.7202 59.4655 91.4815 59.4655C93.5618 59.4655 96.3088 57.0544 99.0386 52.8323C100.16 51.0975 100.278 50.5142 99.5081 50.5142C99.1592 50.5142 98.996 50.6441 98.6258 51.2169C97.0536 53.6494 94.6226 56.3531 93.5012 56.9165C92.3833 57.4783 91.9097 57.3233 91.4913 56.2586C91.164 55.4253 91.4796 51.2214 92.0058 49.4045C92.1355 48.9569 92.2758 48.3411 92.3177 48.0359C92.3927 47.4883 92.3872 47.481 91.8924 47.481C91.6168 47.481 91.0408 47.6567 90.6125 47.8715L89.8337 48.2618L88.7086 47.8709C87.3026 47.3824 86.4461 47.2903 85.5982 47.5368ZM77.8377 47.8471C76.4129 48.5145 74.6078 50.5347 73.0547 53.2002C72.6728 53.8555 72.2287 54.5115 72.0677 54.6581C71.7796 54.9205 71.7749 54.9144 71.7755 54.273C71.7758 53.9145 71.9396 52.789 72.1396 51.7718C72.3396 50.7546 72.5049 49.7162 72.5068 49.4644C72.5129 48.6419 71.8053 48.3151 70.7897 48.6714L70.349 48.826L70.2572 50.6464C70.2068 51.6478 70.0065 53.2593 69.8121 54.2277C69.0406 58.0709 68.8899 59.6647 69.2562 60.1087C69.4698 60.3675 70.3797 60.4415 70.7153 60.2272C70.82 60.1603 71.1049 59.5204 71.3483 58.8054C71.938 57.0722 72.9882 54.9986 74.2362 53.1034C75.9586 50.4877 77.3708 49.4317 78.3143 50.0537C78.9523 50.4742 79.3564 50.3606 79.9349 49.5985C80.2245 49.2169 80.4259 48.8119 80.3827 48.6986C80.3396 48.5852 80.3042 48.4036 80.3042 48.2948C80.3042 48.0286 79.3996 47.4807 78.9633 47.4825C78.7707 47.4833 78.2642 47.6473 77.8377 47.8471ZM87.9826 49.5871C89.6221 50.3313 89.6168 50.3018 88.454 52.1692C85.4944 56.9226 83.9929 58.5711 83.1122 58.0345C81.9399 57.3202 82.1335 53.499 83.4634 51.106C84.0629 50.0271 84.6444 49.4475 85.3978 49.1775C86.1125 48.9215 86.7332 49.0199 87.9826 49.5871Z" fill="#814D35"/>
</svg>
